<svg xmlns="http://www.w3.org/2000/svg" width="150" height="150" viewBox="0 0 150 150"><defs><clipPath id="uf6aa"><path fill="#fff" d="M75-.001c41.421 0 75 33.578 75 75 0 41.42-33.579 75-75 75s-75-33.58-75-75c0-41.422 33.579-75 75-75z"/></clipPath></defs><g><g><g><path fill="#fff" d="M75-.001c41.421 0 75 33.578 75 75 0 41.42-33.579 75-75 75s-75-33.58-75-75c0-41.422 33.579-75 75-75z"/><path fill="none" stroke="#fff" stroke-linecap="round" stroke-linejoin="round" stroke-miterlimit="20" stroke-width="4" d="M75-.001c41.421 0 75 33.578 75 75 0 41.42-33.579 75-75 75s-75-33.58-75-75c0-41.422 33.579-75 75-75z" clip-path="url(&quot;#uf6aa&quot;)"/></g><g><g><text dominant-baseline="text-before-edge" style="text-transform:uppercase;line-height:25px" fill="#fff" font-family="'Montserrat','Montserrat-Bold'" font-size="45" font-style="none" font-weight="700" transform="translate(23 59)"><tspan style="font-kerning:normal">Mini</tspan></text></g></g></g></g></svg>